<?xml version="1.0" encoding="utf-8"?>
<svg xmlns="http://www.w3.org/2000/svg" viewBox="0 0 24 24" fill="none" width="16px" height="16px">
	<g transform="translate(-2.667,-2.667) scale(1.2222)" fill="#3B9E68">
		<path fill-rule="evenodd" clip-rule="evenodd" d="M3 6C3 4.89543 3.89543 4 5 4H19C20.1046 4 21 4.89543 21 6V18C21 19.1046 20.1046 20 19 20H5C3.89543 20 3 19.1046 3 18V6ZM19 6H5V18H19V6Z"/>
		<path d="M11 10.4C11 11.5 10.1 12.4 9 12.4C7.9 12.4 7 11.5 7 10.4C7 9.3 7.9 8.4 9 8.4C10.1 8.4 11 9.3 11 10.4Z"/>
		<path d="M6 16.4C6 14.75 7.34 13.4 9 13.4C10.66 13.4 12 14.75 12 16.4H6Z"/>
		<path d="M14 9.2H18.5V11H14V9.2Z"/>
		<path d="M14 13H18.5V14.8H14V13Z"/>
	</g>
</svg>